<?xml version="1.0" encoding="UTF-8" standalone="no"?>
<!-- Created with Inkscape (http://www.inkscape.org/) -->

<svg
   version="1.1"
   id="svg1"
   width="5866.6665"
   height="1600"
   viewBox="0 0 5866.6665 1600"
   sodipodi:docname="vecteezy_dripping-top-right-top-left-and-center-set-of-3_14914314.eps"
   xmlns:inkscape="http://www.inkscape.org/namespaces/inkscape"
   xmlns:sodipodi="http://sodipodi.sourceforge.net/DTD/sodipodi-0.dtd"
   xmlns="http://www.w3.org/2000/svg"
   xmlns:svg="http://www.w3.org/2000/svg">
  <defs
     id="defs1" />
  <sodipodi:namedview
     id="namedview1"
     pagecolor="#ffffff"
     bordercolor="#000000"
     borderopacity="0.25"
     inkscape:showpageshadow="2"
     inkscape:pageopacity="0.0"
     inkscape:pagecheckerboard="0"
     inkscape:deskcolor="#d1d1d1">
    <inkscape:page
       x="0"
       y="0"
       inkscape:label="1"
       id="page1"
       width="5866.6665"
       height="1600"
       margin="0"
       bleed="0" />
  </sodipodi:namedview>
  <g
     id="g1"
     inkscape:groupmode="layer"
     inkscape:label="1">
    <g
       id="group-R5">
      <path
         id="path2"
         d="m 27546.5,12000 c 881.5,0 1114.1,-985.7 1304.2,-1029.9 200.2,-46.6 338.6,203.3 507.2,181.1 267.4,-35.2 506.1,-321 445.1,-714.2 -62.1,-400.2 116.7,-560.13 345.1,-562.41 196,-1.96 365.7,241.51 296.7,527.91 -115.3,478.5 183.4,649.1 406.6,622.5 240.1,-28.6 209,-514.8 497.3,-523.6 370.9,-11.4 257.4,476.9 514.8,465.6 356.2,-15.7 -4,-832.1 -64.7,-1597.99 -37.5,-472.72 194.5,-673.94 420.8,-682.64 224,-8.62 402.2,267.87 408.6,596.05 7.6,389.91 -227.1,707.9 -168.4,1213.28 49.9,429.7 310.6,350.7 414,6.9 148.4,-493.4 348.6,-665.48 569.3,-672.86 442.5,-14.8 402.9,428.66 708.7,424.66 476.6,-6.2 188,-1479.5 762.1,-1720.86 491.8,-206.79 428.5,468.75 867.5,351.55 495.2,-132.21 -100.9,-1747.68 582.7,-1746.63 757.2,1.15 335.8,1446.12 341.9,2051.75 12.3,1222.69 753.7,1469.59 1007.4,597.32 111.4,-383.05 250.9,-635.95 562.8,-590.59 408.1,59.36 401.9,887.76 973.4,878.26 278.2,-4.6 955,-359.33 644.5,-1851.08 -178.6,-858.05 -20.7,-1337.52 641.8,-1351.32 538.8,-11.22 825.2,628.21 531.3,1725.17 -240.9,899.12 476.2,1166.21 793.6,1035.1 832.3,-343.79 345.5,-2914.78 135.7,-3942.15 -215.9,-1056.75 368.4,-1606.94 875.5,-1606.94 537.1,0 1024.5,506.99 796.8,1659.4 -236.1,1194.86 -377.9,3085.18 -96.6,3268.63 158.7,103.51 317.4,6.91 427.8,-517.55 V 12000 H 27546.5"
         style="fill:#100f0d;fill-opacity:1;fill-rule:nonzero;stroke:none"
         transform="matrix(0.13333333,0,0,-0.13333333,0,1600)" />
      <path
         id="path3"
         d="M 0,12000 V 7889.09 c 286.598,-77.56 608.777,4.83 771.012,288.57 223.386,390.7 225.593,741.26 562.068,805.67 338.9,64.89 430.25,-657.15 869.9,-688.54 384.39,-27.45 257.66,530.36 580.96,613.33 167.05,42.87 411.09,-253.65 411.09,-628.05 0,-2891.16 -501.3,-3837.76 -501.3,-4623.18 0,-715.2 435.96,-1027.89 782.02,-1040.08 342.58,-12.06 796.57,223.38 825.36,1020.77 24.75,685.28 -359.03,1535.92 -371.89,4609.48 -3.87,925.16 1065.54,1103.15 1439.83,501.29 298.49,-479.95 45.44,-803.92 7.57,-1337.08 -26.04,-366.52 270.48,-680.87 542.36,-678.03 349.51,3.64 475.45,362.47 495.94,617.26 29.42,365.96 -125.45,713.59 -194.74,1001.89 -80.76,335.96 205.23,618.3 486.66,611.94 353.54,-8.01 449.56,-223.98 427.74,-479.96 -14.1,-165.4 48.49,-495.99 282.72,-491.94 231.33,4 354.44,267.96 273.88,688.59 -76.48,399.29 280.61,609.76 482.2,391.29 226.96,-245.97 182.46,-564.38 469.2,-659.93 288.07,-95.99 654.71,71.99 752.91,763.92 43.74,308.17 314.49,689.11 661.21,603.93 635.1,-155.98 -27.3,-1099.42 235.7,-1763.8 242.3,-611.94 1126.1,-449.96 1208,81.77 73,473.92 -398.1,985.97 -324.1,1664.04 65.5,599.96 432.1,1157.86 816.5,1039.96 364.9,-111.9 209.2,-730 754.8,-706 540.7,23.8 -52.4,1471.8 1099.9,1903.8 L 0,12000"
         style="fill:#100f0d;fill-opacity:1;fill-rule:nonzero;stroke:none"
         transform="matrix(0.13333333,0,0,-0.13333333,0,1600)" />
      <path
         id="path4"
         d="m 14780.6,12000 c 828.4,0 1332.5,-1195.2 1396.5,-1447.1 158.9,-625.36 980.3,-811.67 1290.4,-255.7 234.5,420.3 246.7,802.7 584.9,864.1 340.6,61.9 411.3,-728 849.8,-773.8 383.5,-40 559,504.8 889,555.2 606.2,92.7 559.9,-429.3 917.8,-416.7 270.8,9.5 158.4,796.3 505.1,854.6 750.7,126 601.4,-1659.27 443.2,-2433.96 -156.1,-764.28 -6.6,-1416.56 633.1,-1426.03 639.8,-9.45 674,878.56 574,1469.68 -134.8,795.63 -412.1,2621.91 263.1,2577.61 684.7,-45 369.6,-913.3 796.3,-1092.7 355.7,-149.6 491.5,359.5 627.4,254.2 328,-254.2 -73,-1263.98 421.4,-1263.22 547.6,0.82 242.9,1045.92 247.3,1483.92 8.9,884.3 545.1,1062.8 728.6,432 80.6,-277.1 180.8,-455.2 407,-427.2 185.9,23.1 360.9,1045.1 740,1045.1 H 14780.6"
         style="fill:#100f0d;fill-opacity:1;fill-rule:nonzero;stroke:none"
         transform="matrix(0.13333333,0,0,-0.13333333,0,1600)" />
    </g>
  </g>
</svg>
